<svg width="368" height="103" viewBox="0 0 368 103" fill="none" xmlns="http://www.w3.org/2000/svg">
<g clip-path="url(#clip0_105_932)">
<g clip-path="url(#clip1_105_932)">
<path d="M30.7669 18.7733C36.1843 6.87085 118.61 19.17 131.495 18.7732C175.736 31.6278 174.57 54.7451 165.071 59.0431L131.495 84.4349C115.318 88.2039 73.8797 93.481 37.5386 84.4349C13.5558 68.3667 23.9953 33.6513 30.7669 18.7733Z" fill="#EDC881" stroke="black"/>
<path d="M94.1664 43.9444C116.749 41.8663 121.919 44.8103 121.68 46.5421C121.68 47.4079 124.396 49.3129 135.258 50.0056C146.122 50.6983 135.258 63.2825 121.68 61.2621L103.099 52.0261C99.7646 51.2563 79.4444 55.7782 69.1534 59.2418C58.8624 62.7053 58.4336 57.7986 59.5056 54.9123C61.054 52.8919 70.1539 47.8698 94.1664 43.9444Z" fill="#7D5555" stroke="black"/>
<path d="M99.5815 70.5087C99.5815 70.8932 99.4707 71.2776 99.2498 71.662C99.0846 72.0248 98.7535 72.3556 98.2567 72.6545C97.8149 72.9322 97.2085 73.1564 96.4356 73.3275C95.6628 73.498 94.6697 73.5836 93.4556 73.5836C91.9651 73.5836 90.751 73.4553 89.813 73.1992C88.93 72.9642 88.1021 72.6225 87.3292 72.1742C86.2804 71.5976 85.3424 70.9359 84.5145 70.1887C83.6872 69.4198 82.9416 68.6405 82.2795 67.8505C81.6174 67.0391 80.9825 66.2384 80.3755 65.4484C79.8237 64.6371 79.2718 63.8897 78.7199 63.2065C75.7397 59.6194 72.9526 56.043 70.3588 52.4772C67.8201 48.9115 65.0882 45.3351 62.1632 41.748C61.8873 46.3813 61.6665 50.9933 61.5009 55.5839C61.3906 60.1745 61.3354 64.7865 61.3354 69.4198C61.3354 69.6547 61.3078 69.9216 61.2526 70.2207C61.1974 70.5196 61.0594 70.8076 60.8387 71.0854C60.618 71.3415 60.2592 71.5656 59.7625 71.7578C59.321 71.9501 58.6863 72.0459 57.8585 72.0459C55.0438 72.0459 52.8915 71.7578 51.4014 71.1812C49.9665 70.5834 49.249 69.7402 49.249 68.6512C49.249 62.6514 49.2766 56.7049 49.3318 50.8118C49.387 44.9187 49.4146 38.9936 49.4146 33.0365V28.4886C49.4146 27.9975 49.6353 27.5918 50.0769 27.2715C50.5736 26.9299 51.6221 26.7591 53.2226 26.7591C54.3264 26.7591 55.4578 26.8231 56.6168 26.9513C57.7757 27.058 58.7967 27.2288 59.6797 27.4637C60.618 27.6986 61.363 28.0082 61.9149 28.3925C62.522 28.7555 62.8255 29.1932 62.8255 29.7056C65.1434 31.4138 67.075 33.1753 68.6204 34.9902C70.2208 36.805 71.7661 38.6306 73.2562 40.4669C75.4086 43.1359 77.5333 45.8048 79.6305 48.4738C81.7275 51.1428 83.8524 53.8331 86.0051 56.5448C85.674 52.5093 85.3151 48.4844 84.9284 44.4704C84.5974 40.4349 83.9075 36.41 82.8592 32.3959C82.5833 31.5205 82.2522 30.6664 81.8655 29.8337C81.5345 29.001 81.3687 28.1469 81.3687 27.2715C81.3687 26.8232 81.7554 26.5242 82.5282 26.3747C83.3004 26.2039 84.1834 26.1185 85.1772 26.1185C86.888 26.1185 88.3502 26.1719 89.5642 26.2787C90.7789 26.3854 91.7998 26.5669 92.6277 26.8232C93.4556 27.0794 94.0899 27.4317 94.5317 27.88C94.9729 28.3071 95.3318 28.8516 95.6077 29.5135C95.9388 30.6664 96.1869 31.8301 96.3527 33.0044C96.5736 34.1574 96.7667 35.2998 96.9325 36.4314C97.4288 39.2925 97.7877 42.1323 98.0085 44.9507C98.2294 47.7691 98.4225 50.609 98.5877 53.4701C98.7535 56.3099 98.9466 59.1496 99.1675 61.9894C99.4435 64.8079 99.5815 67.6476 99.5815 70.5087Z" fill="black"/>
<path d="M104.327 25.5482L106.038 23.4909C107.866 21.2925 111.27 21.2542 113.149 23.4109L116.502 27.2593C117.082 35.6247 119.923 57.3748 118.531 71.7482C117.14 86.1215 111.961 71.0825 109.545 61.7667L104.327 25.5482Z" fill="black" stroke="black"/>
</g>
<g clip-path="url(#clip2_105_932)">
<path d="M210.158 71.4338C210.158 71.8243 210.104 72.2148 209.995 72.6053C209.914 72.9741 209.751 73.3104 209.508 73.6141C209.291 73.8962 208.993 74.1239 208.613 74.2975C208.234 74.4711 207.746 74.5579 207.15 74.5579C206.419 74.5579 205.822 74.4277 205.362 74.1674C204.928 73.9287 204.522 73.5816 204.142 73.126C203.628 72.5402 203.167 71.8677 202.76 71.1083C202.354 70.3273 201.988 69.5355 201.663 68.7327C201.338 67.9083 201.026 67.0947 200.728 66.292C200.457 65.4676 200.186 64.7082 199.915 64.014C198.452 60.3692 197.084 56.7353 195.81 53.1121C194.564 49.489 193.222 45.8551 191.786 42.2103C191.651 46.9182 191.542 51.6043 191.461 56.2688C191.407 60.9333 191.38 65.6195 191.38 70.3273C191.38 70.5659 191.366 70.8371 191.339 71.1409C191.312 71.4446 191.244 71.7375 191.136 72.0195C191.027 72.2799 190.851 72.5077 190.607 72.7029C190.391 72.8982 190.079 72.9958 189.672 72.9958C188.291 72.9958 187.234 72.7029 186.502 72.1172C185.798 71.5097 185.445 70.6528 185.445 69.5463C185.445 63.4499 185.459 57.4078 185.486 51.4199C185.513 45.432 185.527 39.4116 185.527 33.3587V28.7376C185.527 28.2386 185.635 27.8264 185.852 27.5009C186.096 27.1538 186.61 26.9803 187.396 26.9803C187.938 26.9803 188.494 27.0453 189.063 27.1755C189.632 27.284 190.133 27.4575 190.567 27.6962C191.027 27.9348 191.393 28.2494 191.664 28.6399C191.962 29.0088 192.111 29.4535 192.111 29.9742C193.249 31.7098 194.198 33.4997 194.956 35.3438C195.742 37.1878 196.501 39.0428 197.233 40.9086C198.289 43.6205 199.333 46.3324 200.362 49.0443C201.392 51.7562 202.435 54.4898 203.492 57.2451C203.33 53.1447 203.153 49.0551 202.964 44.9765C202.801 40.8761 202.462 36.7865 201.948 32.7078C201.812 31.8183 201.649 30.9505 201.46 30.1044C201.297 29.2582 201.216 28.3904 201.216 27.5009C201.216 27.0453 201.406 26.7416 201.785 26.5897C202.164 26.4162 202.598 26.3294 203.086 26.3294C203.926 26.3294 204.644 26.3836 205.24 26.4921C205.836 26.6006 206.337 26.785 206.744 27.0453C207.15 27.3057 207.462 27.6637 207.679 28.1192C207.895 28.5532 208.072 29.1064 208.207 29.7789C208.37 30.9505 208.491 32.1329 208.573 33.3261C208.681 34.4976 208.776 35.6584 208.857 36.8082C209.101 39.7154 209.277 42.6008 209.386 45.4646C209.494 48.3283 209.589 51.2138 209.67 54.121C209.751 57.0064 209.846 59.8919 209.955 62.7774C210.09 65.6411 210.158 68.5266 210.158 71.4338ZM232.513 60.7597C232.513 62.6472 232.31 64.5347 231.904 66.4221C231.524 68.2879 230.725 70.0561 229.505 71.7267C229.126 72.2256 228.692 72.7138 228.205 73.1911C227.717 73.6467 227.175 74.0589 226.579 74.4277C226.01 74.8182 225.373 75.1219 224.669 75.3389C223.991 75.5776 223.273 75.6969 222.514 75.6969C221.322 75.6969 220.279 75.4691 219.385 75.0135C218.517 74.5796 217.759 74.0046 217.108 73.2887C216.485 72.5511 215.957 71.7267 215.523 70.8154C215.117 69.8825 214.792 68.9388 214.548 67.9842C214.331 67.0079 214.168 66.0642 214.06 65.153C213.979 64.2418 213.938 63.439 213.938 62.7448C213.938 61.9638 213.979 61.1068 214.06 60.1739C214.141 59.241 214.277 58.2865 214.466 57.3102C214.683 56.3339 214.954 55.3685 215.279 54.4138C215.632 53.4593 216.079 52.5698 216.621 51.7453C217.163 50.8992 217.813 50.1508 218.572 49.4999C219.33 48.8273 220.211 48.2958 221.214 47.9053V47.9378C222.081 47.569 222.948 47.3846 223.815 47.3846C224.357 47.3846 224.777 47.4822 225.075 47.6775C225.373 47.8511 225.509 48.1548 225.481 48.5887C226.972 48.8056 228.178 49.3805 229.099 50.3134C230.02 51.2463 230.725 52.3311 231.213 53.5678C231.727 54.8044 232.066 56.0735 232.229 57.3753C232.418 58.677 232.513 59.8051 232.513 60.7597ZM223.327 52.624C222.867 52.624 222.433 52.483 222.027 52.201C221.512 52.8301 221.078 53.5569 220.726 54.3813C220.374 55.1841 220.089 56.0193 219.872 56.8871C219.683 57.7332 219.547 58.5902 219.466 59.458C219.385 60.3258 219.344 61.1394 219.344 61.8987C219.344 62.5279 219.385 63.3414 219.466 64.3394C219.547 65.3157 219.696 66.3029 219.913 67.3008C220.157 68.2988 220.482 69.2317 220.889 70.0995C221.322 70.9673 221.878 71.6073 222.555 72.0195C223.395 71.629 224.086 71.0107 224.628 70.1646C225.197 69.2968 225.644 68.3531 225.969 67.3334C226.294 66.3137 226.511 65.2832 226.62 64.2418C226.755 63.2004 226.823 62.3109 226.823 61.5733C226.823 61.0309 226.782 60.3258 226.701 59.458C226.62 58.5902 226.484 57.7115 226.294 56.822C226.105 55.9108 225.834 55.0647 225.481 54.2837C225.156 53.5027 224.736 52.9169 224.221 52.5264C223.978 52.5915 223.68 52.624 223.327 52.624ZM250.479 50.5087C250.479 53.5027 250.181 56.4532 249.584 59.3604C249.015 62.2675 248.324 65.1638 247.512 68.0493C247.403 68.3313 247.335 68.57 247.308 68.7652C247.146 69.3944 246.97 70.0453 246.78 70.7178C246.617 71.3687 246.346 72.0195 245.967 72.6704C245.615 73.2128 245.127 73.69 244.504 74.1023C243.908 74.4928 243.244 74.688 242.512 74.688C242.214 74.688 241.902 74.6338 241.577 74.5253C241.252 74.4169 240.9 74.2758 240.52 74.1023C239.979 73.7985 239.572 73.3863 239.301 72.8656C239.03 72.3232 238.8 71.77 238.61 71.2059L238.529 70.9782V71.0107C238.068 69.6005 237.675 68.1903 237.35 66.7801C237.052 65.37 236.754 63.9489 236.456 62.517C236.293 61.6275 236.131 60.7489 235.968 59.881C235.806 58.9916 235.616 58.1129 235.399 57.2451L234.83 55.3251C234.695 54.8912 234.546 54.4247 234.383 53.9257C234.247 53.405 234.112 52.9169 233.976 52.4613C233.841 52.0057 233.733 51.6043 233.651 51.2572C233.57 50.8884 233.529 50.6389 233.529 50.5087C233.529 50.0965 233.692 49.8253 234.017 49.6951C234.369 49.5433 234.762 49.4674 235.196 49.4674C236.063 49.4674 236.822 49.6192 237.472 49.9229C238.149 50.2267 238.637 50.7257 238.935 51.4199C239.098 51.7887 239.233 52.1792 239.342 52.5915C239.477 53.0037 239.586 53.4159 239.667 53.8281C240.128 55.26 240.561 56.7786 240.967 58.3841C241.401 59.9679 241.767 61.4973 242.065 62.9726L242.431 64.6323C242.458 64.7408 242.471 64.8276 242.471 64.8927C242.471 64.9577 242.471 65.012 242.471 65.0553C242.499 65.0987 242.512 65.153 242.512 65.2181C242.539 65.2832 242.566 65.3808 242.593 65.511C243.189 63.2113 243.691 60.9116 244.097 58.6119C244.504 56.2905 244.707 53.9583 244.707 51.6152C244.707 51.1379 244.666 50.6714 244.585 50.2158C244.531 49.7602 244.463 49.2829 244.382 48.784C244.3 48.3283 244.219 47.8619 244.138 47.3846C244.084 46.8856 244.057 46.3866 244.057 45.8876C244.057 45.432 244.233 45.1175 244.585 44.9439C244.937 44.7703 245.371 44.6836 245.886 44.6836C246.509 44.6836 247.078 44.7161 247.593 44.7812C248.108 44.8462 248.555 44.9765 248.934 45.1717C249.313 45.3452 249.625 45.6056 249.869 45.9527C250.113 46.2781 250.275 46.712 250.357 47.2544C250.411 47.7534 250.438 48.2958 250.438 48.8816C250.465 49.4456 250.479 49.988 250.479 50.5087ZM269.339 68.1469C269.339 68.7978 269.108 69.4703 268.647 70.1646C268.214 70.8588 267.645 71.4988 266.94 72.0846C266.235 72.6487 265.423 73.1151 264.502 73.484C263.607 73.8528 262.713 74.0372 261.818 74.0372C260.545 74.0372 259.448 73.8419 258.526 73.4514C257.605 73.0392 256.806 72.4968 256.128 71.8243C255.451 71.13 254.896 70.349 254.462 69.4812C254.055 68.6134 253.73 67.7239 253.486 66.8127C253.243 65.8798 253.066 64.9577 252.958 64.0465C252.877 63.1136 252.836 62.2676 252.836 61.5082C252.836 60.8573 252.877 60.0872 252.958 59.1976C253.066 58.3082 253.229 57.3861 253.446 56.4315C253.69 55.4769 254.015 54.5332 254.421 53.6003C254.828 52.6674 255.329 51.8321 255.925 51.0945C256.548 50.3568 257.28 49.7602 258.12 49.3046C258.988 48.849 259.976 48.6212 261.087 48.6212C261.955 48.6212 262.727 48.7622 263.404 49.0443C264.109 49.3263 264.691 49.706 265.152 50.1833C265.64 50.6389 266.005 51.1704 266.249 51.7779C266.52 52.3854 266.656 53.0145 266.656 53.6654C266.656 54.5115 266.412 55.4335 265.924 56.4315C265.436 57.4295 264.799 58.3949 264.014 59.3278C263.255 60.2607 262.388 61.1068 261.412 61.8662C260.464 62.6038 259.516 63.1679 258.567 63.5584C258.621 63.9489 258.73 64.5238 258.893 65.2832C259.055 66.0208 259.272 66.7584 259.543 67.4961C259.841 68.2337 260.18 68.8737 260.559 69.4161C260.965 69.9585 261.439 70.2297 261.981 70.2297C262.252 70.2297 262.483 70.1646 262.673 70.0344C262.889 69.9042 263.079 69.7307 263.242 69.5137C263.404 69.2968 263.54 69.0581 263.648 68.7978C263.784 68.5374 263.905 68.2879 264.014 68.0493L264.258 67.5937C264.311 67.5286 264.339 67.4853 264.339 67.4635C264.366 67.4418 264.393 67.4093 264.42 67.3659C264.61 67.0839 264.786 66.8235 264.948 66.5849C265.138 66.3462 265.396 66.1401 265.721 65.9666H265.68C265.789 65.8798 265.897 65.8364 266.005 65.8364C266.141 65.8147 266.263 65.8039 266.371 65.8039C266.669 65.8039 266.995 65.8798 267.347 66.0316C267.699 66.1835 268.024 66.3788 268.322 66.6174C268.62 66.8344 268.864 67.0839 269.054 67.3659C269.244 67.6263 269.339 67.8866 269.339 68.1469ZM261.291 53.7955C261.291 53.5786 261.277 53.3508 261.25 53.1121C261.223 52.8735 261.155 52.6674 261.047 52.4938C260.668 52.8626 260.329 53.3074 260.031 53.8281C259.759 54.3271 259.529 54.8586 259.339 55.4227C259.15 55.9651 258.988 56.5183 258.851 57.0824C258.744 57.6464 258.662 58.1671 258.607 58.6444C259.313 57.9719 259.936 57.2125 260.477 56.3664C261.019 55.4986 261.291 54.6417 261.291 53.7955ZM281.573 75.046C281.573 75.3497 281.478 75.5992 281.288 75.7945C281.098 75.9897 280.855 76.1416 280.557 76.2501C280.285 76.3803 279.974 76.467 279.622 76.5105C279.297 76.5755 278.998 76.6081 278.728 76.6081C277.779 76.6081 276.953 76.3911 276.248 75.9572C275.543 75.5233 274.934 74.9592 274.419 74.265C273.904 73.5924 273.484 72.8222 273.159 71.9544C272.834 71.0649 272.563 70.1863 272.346 69.3185C272.129 68.429 271.967 67.5829 271.858 66.7801C271.75 65.9557 271.669 65.2506 271.614 64.6648C271.37 62.6472 271.195 60.597 271.086 58.5142C271.005 56.4315 270.964 54.3705 270.964 52.3311C270.964 46.7554 271.208 41.234 271.696 35.7668C271.696 35.68 271.696 35.5824 271.696 35.4739C271.723 35.3655 271.737 35.257 271.737 35.1485C271.763 34.6929 271.791 34.1722 271.818 33.5864C271.845 32.979 271.886 32.3824 271.939 31.7966C271.994 31.2108 272.048 30.6793 272.102 30.202C272.183 29.703 272.278 29.3559 272.387 29.1606V29.1932C272.495 28.8894 272.644 28.6616 272.834 28.5098C273.024 28.3579 273.349 28.282 273.809 28.282C274.785 28.282 275.611 28.5423 276.289 29.063C276.966 29.5837 277.305 30.2345 277.305 31.0156C277.305 31.1891 277.291 31.3627 277.264 31.5362C277.264 31.6881 277.251 31.84 277.223 31.9919C277.197 32.1437 277.169 32.2956 277.142 32.4474C277.142 32.5776 277.142 32.6969 277.142 32.8054C277.061 33.6515 276.993 34.4976 276.939 35.3438C276.912 36.1682 276.872 37.0034 276.817 37.8496C276.682 39.7154 276.573 41.5811 276.492 43.4469C276.438 45.291 276.411 47.1568 276.411 49.0443C276.411 49.847 276.424 50.8992 276.451 52.201C276.479 53.5027 276.533 54.9237 276.614 56.464C276.695 57.9827 276.804 59.5556 276.939 61.1828C277.102 62.8099 277.305 64.3611 277.548 65.8364C277.792 67.3117 278.077 68.6459 278.403 69.8391C278.754 71.0324 279.161 71.9544 279.622 72.6053C279.866 72.6921 280.096 72.8331 280.313 73.0284C280.557 73.202 280.759 73.408 280.922 73.6467C281.112 73.8636 281.261 74.0914 281.37 74.3301C281.505 74.5904 281.573 74.8291 281.573 75.046ZM307.423 39.0862C307.423 41.234 306.99 43.3927 306.123 45.5622C305.283 47.7317 304.091 49.7602 302.546 51.6477C301.029 53.5352 299.2 55.2166 297.059 56.6919C294.918 58.1671 292.574 59.2845 290.027 60.0438C290.19 61.8445 290.379 63.6343 290.596 65.4133C290.813 67.1924 291.111 68.9822 291.491 70.7829C291.572 71.1083 291.653 71.4446 291.734 71.7917C291.842 72.1388 291.897 72.4968 291.897 72.8656C291.897 73.4297 291.721 73.8094 291.368 74.0046C291.016 74.1999 290.515 74.2975 289.865 74.2975C289.404 74.2975 288.848 74.2541 288.198 74.1674C287.548 74.0806 286.993 73.9504 286.531 73.7769C285.989 73.5382 285.624 73.2995 285.434 73.0609C285.271 72.8006 285.15 72.4534 285.069 72.0195C284.607 70.1754 284.323 68.3313 284.214 66.4873C284.133 64.6432 284.012 62.799 283.849 60.955C283.307 60.9116 282.86 60.8031 282.508 60.6295C282.155 60.4343 281.979 60.1089 281.979 59.6533C281.979 59.2194 282.128 58.7637 282.426 58.2865C282.751 57.8092 283.117 57.4403 283.524 57.18C283.28 53.1447 283.171 49.1419 283.199 45.1717C283.252 41.2015 283.252 37.1987 283.199 33.1634C283.063 33.2068 282.941 33.2393 282.833 33.261C282.725 33.2827 282.602 33.2936 282.467 33.2936C282.169 33.2936 281.925 33.2393 281.735 33.1308C281.546 33.0007 281.383 32.8488 281.247 32.6753C281.139 32.5017 281.058 32.3173 281.003 32.122C280.95 31.905 280.922 31.7098 280.922 31.5362C280.922 30.8854 281.126 30.4189 281.532 30.1369C281.939 29.8332 282.494 29.562 283.199 29.3233C283.199 29.0847 283.199 28.8135 283.199 28.5098C283.226 28.1843 283.28 27.8914 283.361 27.6311C283.47 27.3491 283.632 27.1213 283.849 26.9477C284.066 26.7524 284.391 26.6548 284.825 26.6548C285.529 26.6548 286.206 26.7633 286.856 26.9803C287.507 27.1972 287.995 27.566 288.32 28.0867C289.268 27.9565 290.19 27.8372 291.084 27.7287C291.978 27.6203 292.899 27.566 293.848 27.566C295.989 27.566 297.899 27.8589 299.579 28.4447C301.259 29.0088 302.681 29.8115 303.847 30.8528C305.012 31.8725 305.892 33.0874 306.489 34.4976C307.112 35.9079 307.423 37.4373 307.423 39.0862ZM301.327 38.5004C301.327 37.5024 301.164 36.5695 300.839 35.7017C300.514 34.8122 300.026 34.0529 299.375 33.4237C298.725 32.7729 297.899 32.263 296.896 31.8942C295.894 31.5254 294.715 31.341 293.36 31.341C292.628 31.341 291.884 31.3844 291.124 31.4712C290.393 31.5579 289.675 31.6881 288.97 31.8617C288.97 35.8319 288.998 39.7696 289.052 43.6747C289.133 47.5798 289.323 51.4958 289.621 55.4227C291.355 54.7067 292.94 53.7088 294.377 52.4287C295.813 51.1487 297.045 49.7385 298.075 48.1982C299.105 46.6361 299.904 45.0198 300.473 43.3493C301.042 41.6571 301.327 40.0408 301.327 38.5004ZM319.617 75.046C319.617 75.3497 319.522 75.5992 319.333 75.7945C319.143 75.9897 318.899 76.1416 318.601 76.2501C318.33 76.3803 318.018 76.467 317.666 76.5105C317.341 76.5755 317.043 76.6081 316.772 76.6081C315.823 76.6081 314.997 76.3911 314.292 75.9572C313.588 75.5233 312.979 74.9592 312.463 74.265C311.949 73.5924 311.529 72.8222 311.204 71.9544C310.878 71.0649 310.607 70.1863 310.391 69.3185C310.174 68.429 310.011 67.5829 309.903 66.7801C309.795 65.9557 309.713 65.2506 309.659 64.6648C309.415 62.6472 309.239 60.597 309.131 58.5142C309.05 56.4315 309.008 54.3705 309.008 52.3311C309.008 46.7554 309.252 41.234 309.74 35.7668C309.74 35.68 309.74 35.5824 309.74 35.4739C309.768 35.3655 309.781 35.257 309.781 35.1485C309.808 34.6929 309.835 34.1722 309.863 33.5864C309.889 32.979 309.93 32.3824 309.984 31.7966C310.038 31.2108 310.093 30.6793 310.147 30.202C310.228 29.703 310.323 29.3559 310.431 29.1606V29.1932C310.539 28.8894 310.688 28.6616 310.878 28.5098C311.068 28.3579 311.393 28.282 311.854 28.282C312.83 28.282 313.656 28.5423 314.333 29.063C315.011 29.5837 315.349 30.2345 315.349 31.0156C315.349 31.1891 315.336 31.3627 315.309 31.5362C315.309 31.6881 315.295 31.84 315.268 31.9919C315.241 32.1437 315.214 32.2956 315.187 32.4474C315.187 32.5776 315.187 32.6969 315.187 32.8054C315.105 33.6515 315.038 34.4976 314.984 35.3438C314.956 36.1682 314.916 37.0034 314.861 37.8496C314.726 39.7154 314.618 41.5811 314.536 43.4469C314.482 45.291 314.455 47.1568 314.455 49.0443C314.455 49.847 314.468 50.8992 314.496 52.201C314.523 53.5027 314.577 54.9237 314.659 56.464C314.74 57.9827 314.848 59.5556 314.984 61.1828C315.146 62.8099 315.349 64.3611 315.593 65.8364C315.837 67.3117 316.122 68.6459 316.447 69.8391C316.799 71.0324 317.205 71.9544 317.666 72.6053C317.91 72.6921 318.14 72.8331 318.357 73.0284C318.601 73.202 318.804 73.408 318.967 73.6467C319.157 73.8636 319.306 74.0914 319.414 74.3301C319.55 74.5904 319.617 74.8291 319.617 75.046ZM337.868 52.624C337.868 52.841 337.84 53.0688 337.786 53.3074C337.731 53.546 337.677 53.763 337.624 53.9583C337.569 54.1969 337.515 54.4247 337.461 54.6417C337.406 54.8369 337.38 55.0322 337.38 55.2274C337.38 57.2451 337.42 59.2736 337.501 61.3129C337.61 63.3306 337.881 65.3591 338.314 67.3984C338.45 68.1795 338.612 68.9388 338.802 69.6765C338.992 70.4141 339.209 71.1626 339.452 71.9219L339.534 72.1172V72.0521C339.615 72.2039 339.683 72.3667 339.737 72.5402C339.818 72.6921 339.859 72.8548 339.859 73.0284C339.859 73.267 339.778 73.4623 339.615 73.6141C339.48 73.766 339.304 73.8853 339.087 73.9721C338.87 74.0589 338.626 74.1131 338.355 74.1348C338.111 74.1565 337.881 74.1674 337.664 74.1674C336.769 74.1674 336.051 74.0914 335.51 73.9395C334.995 73.766 334.575 73.5382 334.25 73.2561C333.925 72.9525 333.681 72.5945 333.518 72.1822C333.383 71.77 333.261 71.3144 333.152 70.8154L333.03 70.2297C332.922 69.926 332.854 69.6005 332.827 69.2534C332.8 69.0798 332.773 69.0039 332.746 69.0256C332.746 69.0256 332.733 68.9388 332.705 68.7652C332.326 69.3076 331.878 69.8934 331.364 70.5225C330.876 71.13 330.307 71.7049 329.657 72.2473C329.034 72.768 328.356 73.2128 327.624 73.5816C326.893 73.9287 326.107 74.1023 325.267 74.1023C324.102 74.1023 323.194 73.8202 322.544 73.2561C321.92 72.6921 321.46 72.0087 321.162 71.2059C320.864 70.3815 320.688 69.5355 320.633 68.6676C320.579 67.7781 320.552 67.0079 320.552 66.3571C320.552 63.8838 320.647 61.4323 320.837 59.0024C321.053 56.5725 321.283 54.1318 321.527 51.6802C321.527 51.6152 321.527 51.5284 321.527 51.4199C321.555 51.3114 321.568 51.2247 321.568 51.1596C321.595 50.8558 321.622 50.5738 321.65 50.3134C321.676 50.0531 321.745 49.8036 321.852 49.565V49.5975C321.961 49.2504 322.11 49.0009 322.3 48.849C322.517 48.6971 322.842 48.6212 323.275 48.6212C323.682 48.6212 324.088 48.6863 324.494 48.8165C324.901 48.925 325.267 49.0877 325.593 49.3046C325.918 49.4999 326.174 49.7385 326.364 50.0206C326.581 50.3026 326.69 50.6172 326.69 50.9643C326.69 51.1379 326.69 51.344 326.69 51.5826C326.69 51.8213 326.676 52.0274 326.649 52.201C326.649 52.3528 326.636 52.548 326.608 52.7867C326.608 53.0037 326.608 53.1881 326.608 53.3399C326.392 55.4227 326.229 57.4946 326.12 59.5556C326.012 61.595 325.958 63.6669 325.958 65.7713C325.958 66.3571 325.958 66.9429 325.958 67.5286C325.985 68.1144 326.067 68.7002 326.202 69.286C327.096 68.3747 327.868 67.214 328.518 65.8039C329.169 64.3719 329.711 62.8641 330.145 61.2804C330.605 59.675 330.971 58.0912 331.242 56.5291C331.54 54.9454 331.757 53.546 331.892 52.3311C331.892 52.266 331.892 52.1901 331.892 52.1033C331.92 52.0166 331.933 51.9406 331.933 51.8755C331.96 51.6369 331.987 51.4091 332.014 51.1921C332.041 50.9752 332.136 50.7691 332.299 50.5738C332.299 50.3785 332.312 50.1724 332.34 49.9555C332.366 49.7385 332.434 49.5433 332.543 49.3697C332.651 49.1745 332.8 49.0226 332.99 48.9141C333.207 48.8056 333.505 48.7514 333.884 48.7514C334.968 48.7514 335.821 49.0226 336.444 49.565C337.068 50.0857 337.406 50.7582 337.461 51.5826C337.596 51.7562 337.691 51.9297 337.745 52.1033C337.826 52.2552 337.868 52.4287 337.868 52.624ZM356.28 50.2484C356.28 50.5087 356.158 50.7257 355.914 50.8992C355.697 51.0728 355.426 51.2247 355.101 51.3548C354.776 51.4633 354.437 51.5392 354.085 51.5826C353.76 51.626 353.489 51.6477 353.272 51.6477C352.947 51.6477 352.636 51.626 352.337 51.5826C352.039 51.5176 351.741 51.4525 351.443 51.3874C351.145 51.3223 350.861 51.2681 350.589 51.2247C350.318 51.1596 350.034 51.127 349.736 51.127C349.329 51.127 348.923 51.1812 348.516 51.2897C348.11 51.3982 347.744 51.5501 347.419 51.7453C347.094 51.9406 346.823 52.1792 346.606 52.4613C346.416 52.7433 346.321 53.0579 346.321 53.405C346.321 53.9257 346.457 54.4464 346.728 54.9671C346.999 55.4661 347.351 55.9759 347.785 56.4966C348.245 57.0173 348.76 57.5488 349.329 58.0912C349.925 58.6119 350.549 59.1434 351.199 59.6858C351.985 60.38 352.771 61.0852 353.556 61.8011C354.369 62.517 355.087 63.2655 355.71 64.0465C356.361 64.8276 356.89 65.652 357.296 66.5198C357.702 67.3876 357.906 68.2988 357.906 69.2534C357.906 70.0778 357.729 70.8154 357.377 71.4663C357.052 72.1172 356.578 72.6704 355.954 73.126C355.359 73.5816 354.627 73.9287 353.76 74.1674C352.92 74.4277 351.999 74.5579 350.996 74.5579C350.725 74.5579 350.305 74.5145 349.736 74.4277C349.194 74.3409 348.57 74.2216 347.866 74.0697C347.162 73.8962 346.43 73.7118 345.671 73.5165C344.94 73.3212 344.262 73.1151 343.639 72.8982C343.043 72.6596 342.541 72.4317 342.135 72.2148C341.755 71.9762 341.566 71.7592 341.566 71.5639C341.566 71.3036 341.715 71.0433 342.013 70.7829C342.311 70.5009 342.663 70.2514 343.07 70.0344C343.477 69.7958 343.896 69.6005 344.33 69.4486C344.79 69.2968 345.17 69.2208 345.468 69.2208C345.875 69.2208 346.295 69.2968 346.728 69.4486C347.189 69.6005 347.65 69.7741 348.11 69.9694C348.625 70.1863 349.139 70.3815 349.655 70.5551C350.196 70.7287 350.752 70.8154 351.321 70.8154C351.755 70.8154 351.999 70.6961 352.053 70.4575C352.134 70.2189 352.174 69.9476 352.174 69.6439C352.174 68.8846 352.012 68.1687 351.687 67.4961C351.362 66.8019 350.942 66.1293 350.427 65.4784C349.912 64.8276 349.316 64.1984 348.638 63.5909C347.961 62.9618 347.283 62.3435 346.606 61.736C345.902 61.1285 345.21 60.5211 344.533 59.9136C343.883 59.3061 343.3 58.6878 342.785 58.0587C342.271 57.4078 341.85 56.7461 341.525 56.0735C341.227 55.401 341.079 54.6851 341.079 53.9257C341.079 52.9928 341.336 52.1576 341.85 51.4199C342.366 50.6606 343.029 50.0097 343.842 49.4674C344.682 48.925 345.617 48.5127 346.646 48.2307C347.703 47.927 348.76 47.7751 349.817 47.7751C350.169 47.7751 350.712 47.8402 351.443 47.9704C352.174 48.0788 352.893 48.2416 353.597 48.4585C354.302 48.6755 354.925 48.9358 355.466 49.2395C356.009 49.5433 356.28 49.8795 356.28 50.2484Z" fill="black"/>
</g>
</g>
<defs>
<clipPath id="clip0_105_932">
<rect width="368" height="103" fill="white"/>
</clipPath>
<clipPath id="clip1_105_932">
<rect width="149" height="77" fill="white" transform="translate(22 13)"/>
</clipPath>
<clipPath id="clip2_105_932">
<rect width="173" height="51" fill="white" transform="translate(185 26)"/>
</clipPath>
</defs>
</svg>
